<svg width="14" height="15" viewBox="0 0 14 15" fill="none" xmlns="http://www.w3.org/2000/svg">
<g style="mix-blend-mode:plus-darker">
<path d="M7.0036 14.5C7.95951 14.5 8.86018 14.3163 9.70561 13.9488C10.551 13.5813 11.2956 13.0757 11.9393 12.4321C12.5829 11.7884 13.0873 11.045 13.4524 10.202C13.8175 9.35898 14 8.45711 14 7.4964C14 6.54049 13.8163 5.63982 13.4488 4.79439C13.0813 3.94896 12.5757 3.20321 11.9321 2.55713C11.2884 1.91105 10.5438 1.40667 9.6984 1.044C8.85297 0.681335 7.95231 0.5 6.9964 0.5C6.04049 0.5 5.14102 0.681335 4.29799 1.044C3.45496 1.40667 2.71041 1.91105 2.06433 2.55713C1.41825 3.20321 0.912678 3.94896 0.547607 4.79439C0.182536 5.63982 0 6.54049 0 7.4964C0 8.45711 0.183735 9.35898 0.551208 10.202C0.918682 11.045 1.42425 11.7884 2.06793 12.4321C2.71161 13.0757 3.45496 13.5813 4.29799 13.9488C5.14102 14.3163 6.04289 14.5 7.0036 14.5ZM7.0036 13.2174C6.21101 13.2174 5.46886 13.0697 4.77715 12.7743C4.08543 12.4789 3.47778 12.0694 2.95419 11.5458C2.4306 11.0222 2.0223 10.4146 1.72929 9.72285C1.43627 9.03114 1.28976 8.28899 1.28976 7.4964C1.28976 6.70381 1.43627 5.96166 1.72929 5.26994C2.0223 4.57823 2.4306 3.97058 2.95419 3.44699C3.47778 2.9234 4.08423 2.5151 4.77354 2.22208C5.46286 1.92906 6.20381 1.78255 6.9964 1.78255C7.78899 1.78255 8.53234 1.92906 9.22646 2.22208C9.92057 2.5151 10.5294 2.9234 11.053 3.44699C11.5766 3.97058 11.9849 4.57823 12.2779 5.26994C12.5709 5.96166 12.7174 6.70381 12.7174 7.4964C12.7174 8.28899 12.5709 9.03114 12.2779 9.72285C11.9849 10.4146 11.5766 11.0222 11.053 11.5458C10.5294 12.0694 9.92177 12.4789 9.23006 12.7743C8.53834 13.0697 7.79619 13.2174 7.0036 13.2174ZM6.98919 12.0862C7.75776 12.0862 8.46028 11.9169 9.09676 11.5782C9.73323 11.2396 10.2568 10.788 10.6675 10.2236C11.0782 9.6592 11.3244 9.04315 11.4061 8.37545C11.4301 8.1737 11.3857 8.02839 11.2728 7.93953C11.1599 7.85066 11.0146 7.83265 10.8368 7.88549C10.1884 8.07763 9.55189 8.22534 8.92743 8.32862C8.30297 8.43189 7.65689 8.48353 6.98919 8.48353C6.3263 8.48353 5.68262 8.43189 5.05816 8.32862C4.4337 8.22534 3.79722 8.07763 3.14874 7.88549C2.9662 7.83265 2.81729 7.85066 2.702 7.93953C2.58672 8.02839 2.54349 8.1737 2.57231 8.37545C2.65878 9.04315 2.90496 9.6592 3.31086 10.2236C3.71676 10.788 4.23915 11.2396 4.87802 11.5782C5.5169 11.9169 6.22062 12.0862 6.98919 12.0862ZM6.98919 10.0039C6.45599 10.0039 5.90959 9.96783 5.34998 9.89578C4.79036 9.82373 4.25356 9.72285 3.73958 9.59315C3.53783 9.28092 3.40093 8.96869 3.32887 8.65646C3.87648 8.81498 4.46131 8.94227 5.08337 9.03834C5.70544 9.13441 6.34071 9.18245 6.98919 9.18245C7.63767 9.18245 8.27294 9.13441 8.895 9.03834C9.51707 8.94227 10.1043 8.81498 10.6567 8.65646C10.5847 8.96389 10.4478 9.27612 10.246 9.59315C9.72722 9.72285 9.18923 9.82373 8.63201 9.89578C8.0748 9.96783 7.52719 10.0039 6.98919 10.0039ZM4.97169 6.88394C5.19266 6.88394 5.3836 6.79628 5.54452 6.62095C5.70544 6.44562 5.7859 6.22345 5.7859 5.95445C5.7859 5.68545 5.70544 5.46329 5.54452 5.28796C5.3836 5.11263 5.19266 5.02496 4.97169 5.02496C4.76034 5.02496 4.5754 5.11263 4.41688 5.28796C4.25836 5.46329 4.1791 5.68545 4.1791 5.95445C4.1791 6.22345 4.25836 6.44562 4.41688 6.62095C4.5754 6.79628 4.76034 6.88394 4.97169 6.88394ZM8.99228 6.88394C9.20844 6.88394 9.39698 6.79628 9.5579 6.62095C9.71882 6.44562 9.79928 6.22345 9.79928 5.95445C9.79928 5.68545 9.71882 5.46329 9.5579 5.28796C9.39698 5.11263 9.20844 5.02496 8.99228 5.02496C8.78092 5.02496 8.59478 5.11263 8.43386 5.28796C8.27294 5.46329 8.19248 5.68545 8.19248 5.95445C8.19248 6.22345 8.27294 6.44562 8.43386 6.62095C8.59478 6.79628 8.78092 6.88394 8.99228 6.88394Z" fill="#1D1D20"/>
</g>
</svg>
