<svg width="15" height="17" viewBox="0 0 15 17" fill="none" xmlns="http://www.w3.org/2000/svg">
<g style="mix-blend-mode:plus-darker">
<path d="M7.5 15.8661C7.15188 15.8661 6.82145 15.9184 6.50871 16.0232C6.19597 16.128 5.88605 16.2336 5.57895 16.3402C5.27184 16.4467 4.95113 16.5 4.61684 16.5C4.16391 16.5 3.71551 16.3531 3.27164 16.0592C2.82776 15.7653 2.40981 15.3625 2.01779 14.8507C1.62577 14.339 1.27801 13.7527 0.974518 13.0919C0.671025 12.4311 0.432736 11.7325 0.259644 10.9962C0.0865526 10.2598 0 9.52164 0 8.78177C0 7.85389 0.176359 7.02351 0.529068 6.29063C0.881777 5.55774 1.35864 4.97769 1.95964 4.55048C2.56064 4.12326 3.2398 3.90965 3.99712 3.90965C4.47063 3.90965 4.88823 3.95687 5.24991 4.05129C5.61159 4.14572 5.96642 4.24017 6.31439 4.33464C6.66236 4.4291 7.05756 4.47633 7.5 4.47633C7.9426 4.47633 8.33895 4.4291 8.68906 4.33464C9.03916 4.24017 9.39399 4.14572 9.75354 4.05129C10.1131 3.95687 10.5317 3.90965 11.0094 3.90965C11.7625 3.90965 12.4406 4.12326 13.0437 4.55048C13.6468 4.97769 14.1236 5.55774 14.4742 6.29063C14.8247 7.02351 15 7.85389 15 8.78177C15 9.52164 14.9135 10.2598 14.7405 10.9962C14.5675 11.7325 14.3304 12.4311 14.0293 13.0919C13.7283 13.7527 13.3805 14.339 12.986 14.8507C12.5915 15.3625 12.1735 15.7653 11.7318 16.0592C11.29 16.3531 10.8427 16.5 10.3897 16.5C10.056 16.5 9.73563 16.4467 9.42853 16.3402C9.12142 16.2336 8.81146 16.128 8.49864 16.0232C8.18583 15.9184 7.85294 15.8661 7.5 15.8661ZM7.5 14.8172C7.89862 14.8172 8.27149 14.8696 8.61861 14.9744C8.96572 15.0791 9.28688 15.185 9.58206 15.2919C9.87724 15.3988 10.1464 15.4523 10.3897 15.4523C10.7172 15.4523 11.0486 15.332 11.3837 15.0913C11.7189 14.8506 12.0403 14.517 12.3479 14.0905C12.6555 13.6639 12.9291 13.1698 13.1686 12.6081C13.4082 12.0463 13.5986 11.4396 13.7399 10.7879C13.8811 10.1362 13.9518 9.46747 13.9518 8.78177C13.9518 7.99215 13.8288 7.31239 13.5828 6.74248C13.3369 6.17257 12.9927 5.73395 12.5503 5.42661C12.1079 5.11928 11.5943 4.96561 11.0094 4.96561C10.7115 4.96561 10.4432 4.99301 10.2045 5.0478C9.96577 5.10259 9.722 5.16725 9.47316 5.24178C9.22432 5.31631 8.94397 5.38218 8.63213 5.43938C8.32028 5.49658 7.94291 5.52518 7.5 5.52518C7.06137 5.52518 6.68627 5.49658 6.37469 5.43938C6.06312 5.38218 5.78296 5.31631 5.53419 5.24178C5.28543 5.16725 5.04046 5.10259 4.79927 5.0478C4.55808 4.99301 4.2907 4.96561 3.99712 4.96561C3.41212 4.96561 2.8986 5.11928 2.45659 5.42661C2.01458 5.73395 1.6706 6.17257 1.42464 6.74248C1.17867 7.31239 1.05568 7.99215 1.05568 8.78177C1.05568 9.46747 1.12512 10.1362 1.26399 10.7879C1.40286 11.4396 1.59327 12.0463 1.83524 12.6081C2.0772 13.1698 2.35181 13.6639 2.65907 14.0905C2.96633 14.517 3.28774 14.8506 3.62328 15.0913C3.95882 15.332 4.29 15.4523 4.61684 15.4523C4.86008 15.4523 5.1293 15.3988 5.42448 15.2919C5.71967 15.185 6.04079 15.0791 6.38786 14.9744C6.73494 14.8696 7.10565 14.8172 7.5 14.8172ZM7.31308 4.55467C7.23648 3.93907 7.28815 3.38855 7.46808 2.90312C7.64801 2.4177 7.90991 2.00255 8.2538 1.65767C8.59769 1.3128 8.98012 1.04273 9.40108 0.847459C9.82204 0.652192 10.2352 0.536372 10.6407 0.5C10.6832 0.954263 10.6279 1.41661 10.4748 1.88704C10.3216 2.35746 10.0912 2.79321 9.78337 3.19428C9.47557 3.59534 9.11 3.91941 8.68668 4.16647C8.26335 4.41354 7.80547 4.54294 7.31308 4.55467ZM5.40811 1.0225C5.60762 1.0225 5.78377 1.07564 5.93658 1.18192C6.0894 1.2882 6.22502 1.40724 6.34341 1.53905C6.52816 1.75519 6.69954 2.01962 6.85756 2.33236C7.01558 2.6451 7.15209 2.96907 7.26711 3.30427C7.38212 3.63947 7.47181 3.95317 7.53613 4.2454C7.60046 4.53762 7.63347 4.77163 7.63518 4.94742H6.77936C6.73041 4.64424 6.66054 4.33772 6.56972 4.02786C6.4789 3.718 6.36471 3.42069 6.22716 3.13593C6.08961 2.85117 5.92741 2.59602 5.74057 2.37048C5.66793 2.28095 5.60998 2.22398 5.56671 2.19958C5.52344 2.17518 5.48109 2.16298 5.43968 2.16298C5.41086 2.16298 5.3789 2.16546 5.34378 2.17044C5.30866 2.17541 5.26975 2.1779 5.22702 2.1779C5.09557 2.1779 4.98792 2.12445 4.9041 2.01754C4.82027 1.91064 4.77835 1.77986 4.77835 1.6252C4.77835 1.4613 4.8374 1.31987 4.95549 1.20092C5.07358 1.08197 5.22445 1.0225 5.40811 1.0225Z" fill="#1D1D20"/>
</g>
</svg>
