<svg width="10" height="17" viewBox="0 0 10 17" fill="none" xmlns="http://www.w3.org/2000/svg">
<g style="mix-blend-mode:plus-darker">
<path d="M0 4.50022C0 3.87194 0.127055 3.28506 0.381166 2.73958C0.640259 2.1941 0.996512 1.7168 1.44993 1.30769C1.90832 0.893712 2.43896 0.572268 3.04185 0.343361C3.64973 0.114454 4.30244 0 5 0C5.69756 0 6.35027 0.114454 6.95815 0.343361C7.56602 0.572268 8.09666 0.893712 8.55008 1.30769C9.00847 1.7168 9.36472 2.1941 9.61883 2.73958C9.87294 3.28506 10 3.87194 10 4.50022C10 5.06518 9.94021 5.56439 9.82063 5.99785C9.70603 6.42644 9.55655 6.84773 9.3722 7.26171C9.18784 7.67569 8.99103 8.13107 8.78176 8.62785C8.57748 9.12462 8.38814 9.71394 8.21375 10.3958C8.03936 11.0728 7.90483 11.8983 7.81016 12.8724C7.79522 13.0039 7.74788 13.1086 7.66816 13.1865C7.59342 13.2644 7.48381 13.3034 7.33931 13.3034H2.66069C2.51619 13.3034 2.40658 13.2644 2.33184 13.1865C2.2571 13.1086 2.21226 13.0039 2.19731 12.8724C2.10264 11.8983 1.96562 11.0728 1.78625 10.3958C1.61186 9.71394 1.42252 9.12462 1.21824 8.62785C1.01395 8.13107 0.819631 7.67569 0.635277 7.26171C0.450922 6.84773 0.298954 6.42644 0.179372 5.99785C0.0597907 5.56439 0 5.06518 0 4.50022ZM1.12855 4.50022C1.12855 4.91907 1.17838 5.29408 1.27803 5.62527C1.37768 5.95645 1.50722 6.29738 1.66667 6.64804C1.83109 6.99871 2.00797 7.41026 2.19731 7.88268C2.38665 8.35511 2.571 8.93711 2.75037 9.62871C2.93473 10.3203 3.09417 11.1775 3.2287 12.2003H6.77877C6.9133 11.1775 7.07025 10.3203 7.24963 9.62871C7.429 8.93711 7.61335 8.35511 7.80269 7.88268C7.99203 7.41026 8.16642 6.99871 8.32586 6.64804C8.49028 6.29738 8.62232 5.95645 8.72197 5.62527C8.82162 5.29408 8.87145 4.91907 8.87145 4.50022C8.87145 4.00831 8.76931 3.55536 8.56502 3.14138C8.36572 2.7274 8.0867 2.36943 7.72795 2.06747C7.36921 1.76064 6.95566 1.52442 6.48729 1.35883C6.02392 1.18837 5.52815 1.10314 5 1.10314C4.47683 1.10314 3.98107 1.18837 3.51271 1.35883C3.04933 1.52442 2.63827 1.76064 2.27952 2.06747C1.92078 2.36943 1.63926 2.7274 1.43498 3.14138C1.23069 3.55536 1.12855 4.00831 1.12855 4.50022ZM2.63827 14.8814C2.5137 14.8814 2.40907 14.84 2.32436 14.7572C2.23966 14.6744 2.19731 14.5721 2.19731 14.4504C2.19731 14.3335 2.23966 14.2336 2.32436 14.1508C2.40907 14.068 2.5137 14.0266 2.63827 14.0266H7.36921C7.48879 14.0266 7.59093 14.068 7.67564 14.1508C7.76034 14.2336 7.80269 14.3335 7.80269 14.4504C7.80269 14.5721 7.76034 14.6744 7.67564 14.7572C7.59093 14.84 7.48879 14.8814 7.36921 14.8814H2.63827ZM5 17C4.41704 17 3.91131 16.8709 3.48281 16.6128C3.05929 16.3595 2.83508 16.0235 2.81016 15.6046H7.19731C7.16243 16.0235 6.93074 16.3595 6.50224 16.6128C6.07872 16.8709 5.57798 17 5 17Z" fill="#1D1D20"/>
</g>
</svg>
