<svg width="14" height="15" viewBox="0 0 14 15" fill="none" xmlns="http://www.w3.org/2000/svg">
<g style="mix-blend-mode:plus-darker">
<path d="M0.599099 15C0.436186 15 0.294294 14.9414 0.173423 14.8242C0.0578078 14.712 0 14.5795 0 14.4266V1.72018C0 1.3736 0.0814565 1.09582 0.244369 0.88685C0.412538 0.672783 0.630631 0.507136 0.898649 0.389908C1.09835 0.303262 1.29542 0.231906 1.48986 0.175841C1.68431 0.114679 1.91291 0.0713558 2.17568 0.0458716C2.44369 0.0152905 2.78266 0 3.19257 0C3.92305 0 4.59572 0.0688073 5.21059 0.206422C5.83071 0.344037 6.4298 0.504587 7.00788 0.688073C7.58596 0.87156 8.17455 1.03466 8.77365 1.17737C9.37275 1.31498 10.0191 1.38379 10.7128 1.38379C11.3908 1.38379 11.9215 1.33028 12.3052 1.22324C12.6941 1.11621 12.9857 1.06269 13.1802 1.06269C13.4114 1.06269 13.6059 1.11876 13.7635 1.23089C13.9212 1.34302 14 1.50357 14 1.71254V9.47248C14 9.82416 13.9185 10.107 13.7556 10.3211C13.5927 10.5301 13.3746 10.6932 13.1014 10.8104C12.9017 10.897 12.7046 10.9709 12.5101 11.0321C12.3157 11.0882 12.0871 11.1315 11.8243 11.1621C11.5616 11.1876 11.2252 11.2003 10.8153 11.2003C10.1216 11.2003 9.47523 11.1315 8.87613 10.9939C8.27703 10.8512 7.68844 10.6906 7.11036 10.5122C6.53228 10.3287 5.93318 10.1682 5.31306 10.0306C4.6982 9.88787 4.02553 9.81651 3.29505 9.81651C2.71697 9.81651 2.24662 9.86748 1.88401 9.96942C1.52665 10.0663 1.29805 10.1351 1.1982 10.1758V14.4266C1.1982 14.5846 1.14039 14.7197 1.02477 14.8318C0.909159 14.9439 0.767267 15 0.599099 15ZM10.8153 10.0459C11.4302 10.0459 11.9032 9.97706 12.2342 9.83945C12.5653 9.70183 12.7571 9.56932 12.8097 9.4419V2.29358C12.5469 2.36493 12.2395 2.42355 11.8874 2.46942C11.5353 2.51529 11.1438 2.53823 10.7128 2.53823C9.99287 2.53823 9.32282 2.46942 8.7027 2.3318C8.08784 2.18909 7.48874 2.02854 6.90541 1.85015C6.32733 1.66667 5.73611 1.50612 5.13176 1.3685C4.53266 1.22579 3.88626 1.15443 3.19257 1.15443C2.5777 1.15443 2.10473 1.22324 1.77365 1.36086C1.44257 1.49847 1.25075 1.63099 1.1982 1.75841V8.93731C1.41892 8.85066 1.71584 8.7844 2.08896 8.73853C2.46209 8.68756 2.86411 8.66208 3.29505 8.66208C4.0518 8.66208 4.74812 8.73343 5.38401 8.87615C6.0199 9.01376 6.62688 9.17431 7.20496 9.3578C7.78829 9.53619 8.37162 9.69674 8.95496 9.83945C9.53829 9.97706 10.1584 10.0459 10.8153 10.0459Z" fill="#1D1D20"/>
</g>
</svg>
