<svg width="1024" height="1024" viewBox="0 0 1024 1024" fill="none" xmlns="http://www.w3.org/2000/svg">
<mask id="mask0_1676_14818" style="mask-type:alpha" maskUnits="userSpaceOnUse" x="0" y="0" width="1024" height="1024">
<rect width="1024" height="1024" fill="#D9D9D9"/>
</mask>
<g mask="url(#mask0_1676_14818)">
<path d="M1363.46 257.993C1378.25 234.672 1409.14 227.753 1432.46 242.54C1455.78 257.327 1462.7 288.221 1447.91 311.542L1224.55 663.822C1222.86 666.643 1220.87 669.323 1218.58 671.812C1215.11 675.617 1211.13 678.787 1206.82 681.289C1206.61 681.413 1206.39 681.535 1206.18 681.655C1206.1 681.7 1206.02 681.746 1205.94 681.79C1199.18 685.549 1191.81 687.59 1184.4 687.986C1184.36 687.989 1184.32 687.992 1184.27 687.994C1184.05 688.006 1183.82 688.013 1183.6 688.022C1183.39 688.03 1183.17 688.039 1182.96 688.045C1182.93 688.046 1182.89 688.046 1182.85 688.047C1176.21 688.208 1169.48 687.05 1163.09 684.479C1163.01 684.45 1162.94 684.421 1162.87 684.393C1162.63 684.293 1162.38 684.191 1162.14 684.087C1157 681.912 1152.18 678.857 1147.92 674.947C1145.61 672.84 1143.54 670.547 1141.7 668.107L1056.39 559.642L861.29 867.332C852.601 881.035 837.802 889.671 821.597 890.493C805.392 891.316 789.796 884.223 779.764 871.47L693.766 762.141L507.603 1055.75C498.914 1069.46 484.116 1078.09 467.911 1078.91C451.706 1079.74 436.109 1072.64 426.077 1059.89L340.079 950.563L153.917 1244.17C145.228 1257.88 130.429 1266.51 114.223 1267.34C98.0181 1268.16 82.421 1261.07 72.3893 1248.31L-13.6078 1138.98L-199.771 1432.6C-208.46 1446.3 -223.258 1454.94 -239.463 1455.76C-255.668 1456.58 -271.265 1449.49 -281.297 1436.73L-410.983 1271.87C-428.055 1250.16 -424.3 1218.73 -402.596 1201.65C-380.892 1184.58 -349.458 1188.34 -332.385 1210.04L-246.388 1319.37L-60.224 1025.76C-51.5352 1012.05 -36.7367 1003.42 -20.5316 1002.6C-4.32632 1001.77 11.2705 1008.87 21.3024 1021.62L107.299 1130.95L293.464 837.336L293.876 836.697C302.615 823.364 317.204 814.984 333.156 814.174C349.361 813.351 364.958 820.444 374.99 833.197L460.987 942.526L647.15 648.915L647.562 648.276C656.302 634.943 670.891 626.563 686.843 625.753C703.048 624.931 718.645 632.023 728.676 644.776L814.674 754.106L1009.77 446.416L1010.18 445.777C1018.92 432.445 1033.51 424.065 1049.47 423.255C1065.67 422.433 1081.27 429.525 1091.3 442.278L1177.3 551.606L1363.46 257.993Z" fill="white" fill-opacity="0.07"/>
</g>
</svg>
