<svg width="1024" height="1024" viewBox="0 0 1024 1024" fill="none" xmlns="http://www.w3.org/2000/svg">
<mask id="mask0_1676_14816" style="mask-type:alpha" maskUnits="userSpaceOnUse" x="0" y="0" width="1024" height="1024">
<rect width="1024" height="1024" fill="#D9D9D9"/>
</mask>
<g mask="url(#mask0_1676_14816)">
<path d="M1009.77 772.082C1024.56 748.76 1055.45 741.842 1078.77 756.63C1102.09 771.417 1109.01 802.309 1094.23 825.631L861.291 1193C852.602 1206.7 837.803 1215.34 821.598 1216.16C805.393 1216.98 789.797 1209.89 779.765 1197.14L693.767 1087.81L507.604 1381.42C498.915 1395.12 484.117 1403.76 467.912 1404.58C451.707 1405.4 436.11 1398.31 426.078 1385.56L340.08 1276.23L153.917 1569.84C145.228 1583.54 130.43 1592.18 114.224 1593C98.019 1593.83 82.4222 1586.73 72.3903 1573.98L-57.2952 1409.11C-74.3677 1387.41 -70.6136 1355.97 -48.9095 1338.9C-27.2053 1321.83 4.22988 1325.58 21.3024 1347.28L107.3 1456.61L293.464 1163C302.152 1149.3 316.952 1140.66 333.157 1139.84C349.362 1139.02 364.958 1146.11 374.99 1158.86L460.987 1268.19L647.151 974.58C655.84 960.876 670.638 952.241 686.843 951.419C703.049 950.596 718.646 957.689 728.677 970.442L814.675 1079.77L1009.77 772.082Z" fill="white" fill-opacity="0.07"/>
</g>
</svg>
