<svg width="1024" height="1024" viewBox="0 0 1024 1024" fill="none" xmlns="http://www.w3.org/2000/svg">
<mask id="mask0_1676_14815" style="mask-type:alpha" maskUnits="userSpaceOnUse" x="0" y="0" width="1024" height="1024">
<rect width="1024" height="1024" fill="#D9D9D9"/>
</mask>
<g mask="url(#mask0_1676_14815)">
<path d="M1363.46 -392.454C1378.25 -415.775 1409.14 -422.693 1432.46 -407.907C1455.78 -393.12 1462.7 -362.227 1447.92 -338.906L1223.91 14.3853C1215.22 28.0891 1200.43 36.7248 1184.22 37.5475C1168.01 38.37 1152.42 31.2774 1142.39 18.524L1056.39 -90.807L861.29 216.884C852.601 230.588 837.803 239.223 821.598 240.046C805.393 240.868 789.796 233.775 779.765 221.022L693.767 111.693L507.604 405.305C498.915 419.009 484.116 427.645 467.911 428.467C451.706 429.29 436.109 422.197 426.077 409.444L340.079 300.114L153.916 593.727C145.227 607.431 130.429 616.066 114.224 616.888C98.0185 617.711 82.4216 610.619 72.3898 597.866L-13.6083 488.536L-199.771 782.149C-208.46 795.853 -223.259 804.488 -239.464 805.311C-255.669 806.134 -271.266 799.041 -281.298 786.288L-421.299 608.308C-438.371 586.604 -434.617 555.169 -412.913 538.096C-391.209 521.024 -359.774 524.778 -342.701 546.482L-246.389 668.922L-60.2245 375.31L-59.8124 374.672C-51.0725 361.338 -36.4833 352.958 -20.5311 352.148C-4.32596 351.326 11.2711 358.418 21.3029 371.172L107.3 480.5L293.463 186.888C302.152 173.185 316.95 164.55 333.155 163.727C349.361 162.905 364.958 169.996 374.989 182.75L460.986 292.079L647.151 -1.5336C655.839 -15.2372 670.638 -23.872 686.843 -24.6947C703.048 -25.5173 718.645 -18.4248 728.677 -5.6713L814.675 103.658L1009.77 -204.033C1018.46 -217.736 1033.26 -226.37 1049.47 -227.193C1065.67 -228.015 1081.27 -220.923 1091.3 -208.17L1177.3 -98.8412L1363.46 -392.454Z" fill="white" fill-opacity="0.07"/>
</g>
</svg>
