<svg width="14" height="15" viewBox="0 0 14 15" fill="none" xmlns="http://www.w3.org/2000/svg">
<g style="mix-blend-mode:plus-darker">
<path d="M7.00369 14.5C6.80631 14.5 6.63491 14.4221 6.4895 14.2662L3.77454 11.447C3.38322 11.0402 2.96851 10.5813 2.5304 10.0703C2.09228 9.55923 1.68227 9.00873 1.30035 8.41876C0.918439 7.82879 0.606231 7.20716 0.363739 6.55389C0.121246 5.90062 0 5.23082 0 4.54449C0 3.79059 0.161544 3.10778 0.48465 2.49604C0.807756 1.88431 1.2458 1.3987 1.79877 1.03922C2.35174 0.67974 2.97524 0.5 3.66928 0.5C4.30137 0.5 4.91591 0.654153 5.51291 0.962459C6.10991 1.27077 6.60684 1.71361 7.00369 2.29099C7.39125 1.72182 7.88244 1.28103 8.47729 0.968621C9.07214 0.656207 9.68987 0.5 10.3305 0.5C11.0209 0.5 11.6437 0.67974 12.1989 1.03922C12.754 1.3987 13.193 1.88431 13.5158 2.49604C13.8386 3.10778 14 3.79059 14 4.54449C14 5.23941 13.8789 5.91254 13.6366 6.56385C13.3943 7.21517 13.081 7.83575 12.6965 8.42561C12.3121 9.01546 11.901 9.56484 11.4632 10.0737C11.0254 10.5826 10.6106 11.0404 10.2189 11.447L7.51132 14.2662C7.44238 14.3401 7.36611 14.3976 7.2825 14.4386C7.19889 14.4795 7.10596 14.5 7.00369 14.5ZM7.00345 13.1141C7.06533 13.1141 7.12431 13.0861 7.18036 13.0302L9.43188 10.6871C9.95549 10.1402 10.4312 9.6048 10.859 9.08086C11.2868 8.55692 11.6522 8.04133 11.9552 7.53409C12.2582 7.02685 12.4917 6.52494 12.6555 6.02838C12.8194 5.53181 12.9014 5.03718 12.9014 4.54449C12.9014 3.98469 12.7873 3.48271 12.5591 3.03854C12.3308 2.59438 12.0228 2.24336 11.6349 1.9855C11.2471 1.72764 10.8122 1.59871 10.3305 1.59871C9.69578 1.59871 9.09388 1.80732 8.52475 2.22453C7.95562 2.64175 7.50065 3.1997 7.15985 3.89839C7.12622 3.96888 7.07294 4.00412 7 4.00412C6.92706 4.00412 6.87408 3.96888 6.84106 3.89839C6.49542 3.19963 6.03804 2.64165 5.46887 2.22448C4.8997 1.8073 4.29983 1.59871 3.66928 1.59871C3.1876 1.59871 2.75283 1.72764 2.36496 1.9855C1.97709 2.24336 1.6692 2.59332 1.44125 3.03538C1.21331 3.47743 1.09933 3.98047 1.09933 4.54449C1.09933 5.03303 1.18227 5.5277 1.34814 6.02849C1.51402 6.52928 1.74952 7.03441 2.05466 7.54388C2.3598 8.05335 2.7252 8.57003 3.15088 9.09393C3.57655 9.61783 4.04895 10.1489 4.56802 10.6871L6.81955 13.0302C6.84013 13.0509 6.86573 13.0701 6.89636 13.0877C6.927 13.1053 6.96268 13.1141 7.00345 13.1141ZM2.85992 6.56454C2.59797 6.26434 2.39586 5.93737 2.2536 5.58365C2.11134 5.22993 2.04022 4.8807 2.04022 4.53597C2.04022 4.18286 2.10863 3.86691 2.24548 3.58813C2.38233 3.30934 2.55556 3.09018 2.7652 2.93063C2.97483 2.77108 3.18568 2.69131 3.39774 2.69131C3.55328 2.69131 3.67377 2.73498 3.75919 2.82232C3.8446 2.90965 3.8873 3.01378 3.8873 3.13471C3.8873 3.29449 3.82981 3.42916 3.71484 3.53872C3.59987 3.64828 3.46729 3.7619 3.31708 3.87956C3.16687 3.99723 3.03529 4.14794 2.92239 4.33171C2.8095 4.51548 2.75305 4.76338 2.75305 5.07541C2.75305 5.2616 2.77929 5.46722 2.83173 5.69226C2.88416 5.9173 2.97339 6.15938 3.09946 6.41851C3.14291 6.50642 3.13045 6.57207 3.06204 6.61545C2.99364 6.65883 2.92626 6.64186 2.85992 6.56454Z" fill="#1D1D20"/>
</g>
</svg>
