<svg width="17" height="15" viewBox="0 0 17 15" fill="none" xmlns="http://www.w3.org/2000/svg">
<path d="M8.49994 13.43C8.38692 13.43 8.32623 13.3626 8.31787 13.228L8.29526 12.4866C8.26719 12.4679 8.22722 12.4563 8.17534 12.4519C8.12346 12.4474 8.02832 12.4452 7.88992 12.4452C7.72921 12.4452 7.59316 12.4818 7.48175 12.5551C7.37034 12.6285 7.31464 12.7573 7.31464 12.9418V13.3629C7.18304 13.2689 7.00773 13.1778 6.78876 13.0895C6.56978 13.0012 6.21524 12.9478 5.72511 12.9292C4.79756 12.8914 4.03458 12.69 3.43617 12.3251C2.83777 11.9602 2.39311 11.5057 2.10217 10.9616C1.81124 10.4174 1.66577 9.85584 1.66577 9.27688C1.66577 8.73335 1.72836 8.26419 1.85355 7.86937C1.97873 7.47456 2.13369 7.14113 2.31844 6.86906C2.50319 6.597 2.68781 6.37241 2.8723 6.19527C3.05679 6.01814 3.21074 5.87873 3.33417 5.77705C3.4576 5.67538 3.5193 5.59821 3.5193 5.54554V4.92204C3.5193 4.26543 3.63389 3.64268 3.86305 3.0538C4.09222 2.46492 4.42423 1.94118 4.85909 1.48259C5.29394 1.02399 5.81779 0.662248 6.43063 0.397349C7.04348 0.13245 7.73325 0 8.49994 0C9.27081 0 9.9625 0.13245 10.575 0.397349C11.1875 0.662248 11.7092 1.02403 12.14 1.4827C12.5708 1.94137 12.9008 2.46613 13.1299 3.05699C13.359 3.64785 13.4735 4.26953 13.4735 4.92204V5.54554C13.4735 5.59821 13.5362 5.67538 13.6617 5.77705C13.7872 5.87873 13.9424 6.01814 14.1272 6.19527C14.312 6.37241 14.4967 6.597 14.6812 6.86906C14.8657 7.14113 15.0206 7.47456 15.1461 7.86937C15.2716 8.26419 15.3343 8.73335 15.3343 9.27688C15.3343 9.89381 15.1806 10.4752 14.8732 11.0212C14.5658 11.5671 14.1106 12.0142 13.5077 12.3625C12.9047 12.7107 12.1625 12.9017 11.281 12.9356C10.7824 12.95 10.4308 12.9974 10.2263 13.0779C10.0218 13.1584 9.84136 13.2534 9.68491 13.3629V12.9418C9.68491 12.7573 9.62919 12.6285 9.51775 12.5551C9.4063 12.4818 9.26834 12.4452 9.1039 12.4452C8.96908 12.4452 8.87689 12.4474 8.82729 12.4519C8.77768 12.4563 8.73855 12.4679 8.70988 12.4866L8.68816 13.228C8.67972 13.3626 8.61699 13.43 8.49994 13.43ZM5.76811 11.9759C6.28586 11.9759 6.72511 11.9439 7.08588 11.8801C7.44664 11.8162 7.74241 11.7525 7.97318 11.6889C8.20395 11.6253 8.37953 11.5935 8.49994 11.5935C8.62034 11.5935 8.79589 11.6253 9.02658 11.6889C9.25727 11.7525 9.55301 11.8162 9.91377 11.8801C10.2745 11.9439 10.7137 11.9759 11.2313 11.9759C11.8396 11.9759 12.3776 11.8562 12.8454 11.6168C13.3131 11.3775 13.6785 11.0542 13.9414 10.6469C14.2044 10.2396 14.3359 9.78296 14.3359 9.27688C14.3359 8.76857 14.2732 8.32508 14.1478 7.94642C14.0224 7.56775 13.8673 7.24258 13.6826 6.97089C13.4978 6.6992 13.3142 6.47093 13.1318 6.28608C12.9494 6.10122 12.7954 5.94986 12.67 5.832C12.5445 5.71413 12.4818 5.61864 12.4818 5.54554V4.92204C12.4818 4.16569 12.3105 3.4924 11.9679 2.90218C11.6252 2.31196 11.1541 1.84715 10.5545 1.50777C9.95492 1.16838 9.27007 0.998687 8.49994 0.998687C7.72981 0.998687 7.04583 1.16838 6.44798 1.50777C5.85014 1.84715 5.37995 2.31196 5.0374 2.90218C4.69485 3.4924 4.52356 4.16569 4.52356 4.92204V5.54554C4.52356 5.61864 4.4608 5.71413 4.33528 5.832C4.20976 5.94986 4.05478 6.10122 3.87033 6.28608C3.68588 6.47093 3.50139 6.6992 3.31686 6.97089C3.13234 7.24258 2.97736 7.56775 2.85191 7.94642C2.72647 8.32508 2.66374 8.76857 2.66374 9.27688C2.66374 9.78296 2.79523 10.2396 3.05821 10.6469C3.32119 11.0542 3.68657 11.3775 4.15434 11.6168C4.62211 11.8562 5.16004 11.9759 5.76811 11.9759ZM1.22729 8.71762C1.04284 8.71762 0.856118 8.66314 0.667114 8.55419C0.478109 8.44524 0.319672 8.27719 0.191803 8.05003C0.063934 7.82288 0 7.52713 0 7.1628C0 6.68984 0.0851654 6.19445 0.255508 5.67663C0.425851 5.1588 0.657817 4.64456 0.951401 4.13389C1.24498 3.62323 1.58106 3.13983 1.95963 2.6837C2.33819 2.22757 2.73786 1.82347 3.1586 1.4714C3.57934 1.11933 4.00032 0.842702 4.42151 0.64151C4.8427 0.440317 5.24251 0.339721 5.62097 0.339721C5.90493 0.339721 6.11845 0.381124 6.26155 0.463928C6.40465 0.546732 6.52913 0.647739 6.63498 0.766947C5.72444 1.30771 5.0387 2.01108 4.57776 2.87706C4.11682 3.74303 3.8528 4.74517 3.78569 5.88347C3.65051 6.01223 3.50887 6.19227 3.36081 6.4236C3.21275 6.65493 3.05916 6.9011 2.90001 7.16212C2.74086 7.42314 2.5728 7.67256 2.39581 7.91039C2.21883 8.1482 2.0328 8.3422 1.83775 8.49236C1.6427 8.64253 1.43922 8.71762 1.22729 8.71762ZM15.7787 8.71762C15.5667 8.71762 15.3631 8.64253 15.1681 8.49236C14.9731 8.3422 14.7871 8.1482 14.6101 7.91039C14.4331 7.67256 14.263 7.42314 14.0999 7.16212C13.9367 6.9011 13.7819 6.65493 13.6355 6.4236C13.4891 6.19227 13.3483 6.01223 13.2128 5.88347C13.1417 4.73637 12.8771 3.73199 12.4189 2.87034C11.9608 2.00869 11.2782 1.30756 10.3712 0.766947C10.4728 0.647739 10.5931 0.546732 10.7319 0.463928C10.8708 0.381124 11.0863 0.339721 11.3786 0.339721C11.7572 0.339721 12.157 0.440317 12.5782 0.64151C12.9993 0.842702 13.4202 1.11933 13.841 1.4714C14.2619 1.82347 14.6616 2.22757 15.0402 2.6837C15.4188 3.13983 15.7549 3.62323 16.0484 4.13389C16.3419 4.64456 16.5739 5.1588 16.7443 5.67663C16.9148 6.19445 17 6.68984 17 7.1628C17 7.52713 16.936 7.82288 16.8081 8.05003C16.6801 8.27719 16.5217 8.44524 16.3327 8.55419C16.1437 8.66314 15.9591 8.71762 15.7787 8.71762ZM8.49994 15C7.97159 15 7.54959 14.8496 7.23395 14.5488C6.91831 14.248 6.7605 13.8761 6.7605 13.4329V12.7051L7.31464 12.9418V13.4329C7.31464 13.7683 7.43283 14.0199 7.66924 14.1878C7.90564 14.3558 8.18254 14.4397 8.49994 14.4397C8.81719 14.4397 9.094 14.3558 9.33037 14.1878C9.56674 14.0199 9.68491 13.7683 9.68491 13.4329V12.9418L10.2457 12.7051V13.4329C10.2457 13.876 10.0868 14.248 9.76906 14.5488C9.45133 14.8496 9.02829 15 8.49994 15ZM5.90717 9.45938C5.69338 9.45938 5.51061 9.32401 5.35886 9.05325C5.2071 8.7825 5.13123 8.4576 5.13123 8.07857C5.13123 7.69804 5.20609 7.3763 5.35583 7.11334C5.50558 6.85038 5.68935 6.7189 5.90717 6.7189C6.12095 6.7189 6.30137 6.85049 6.44843 7.11367C6.59548 7.37686 6.66901 7.69849 6.66901 8.07857C6.66901 8.45335 6.59537 8.77718 6.44809 9.05006C6.30081 9.32294 6.12051 9.45938 5.90717 9.45938ZM5.53912 7.53038C5.59974 7.51621 5.65351 7.50308 5.70042 7.49099C5.74734 7.47891 5.81625 7.47286 5.90717 7.47286C5.99383 7.47286 6.06143 7.47891 6.10995 7.49099C6.15847 7.50308 6.21125 7.51621 6.26828 7.53038C6.2635 7.43862 6.23226 7.33739 6.17456 7.22669C6.11686 7.11599 6.02772 7.06063 5.90717 7.06063C5.78154 7.06063 5.69118 7.11479 5.63609 7.22311C5.581 7.33143 5.54868 7.43385 5.53912 7.53038ZM11.0154 10.1386C10.7862 10.1386 10.5385 10.0874 10.2722 9.98486C10.0059 9.88236 9.7561 9.72647 9.52272 9.51718C9.28934 9.30789 9.09784 9.04148 8.94821 8.71795C8.79858 8.39442 8.72377 8.01135 8.72377 7.56876C8.72377 6.90282 8.81412 6.35105 8.99484 5.91346C9.17556 5.47586 9.41219 5.14989 9.70473 4.93553C9.99727 4.72117 10.3105 4.61399 10.6444 4.61399C10.9257 4.61399 11.1554 4.70323 11.3335 4.88171C11.5116 5.06018 11.6731 5.27064 11.8182 5.51309C11.9632 5.75553 12.1266 5.96732 12.3084 6.14844C12.6334 6.46974 12.8655 6.76209 13.0046 7.0255C13.1437 7.28891 13.2133 7.57928 13.2133 7.89662C13.2133 8.28207 13.1337 8.64505 12.9745 8.98555C12.8153 9.32606 12.5738 9.60336 12.2501 9.81746C11.9264 10.0316 11.5148 10.1386 11.0154 10.1386ZM11.0925 9.63148C11.3632 9.63148 11.5875 9.48191 11.7655 9.18277C11.9436 8.88363 12.0326 8.51556 12.0326 8.07857C12.0326 7.64142 11.9436 7.27684 11.7655 6.98482C11.5875 6.69281 11.3632 6.5468 11.0925 6.5468C10.8224 6.5468 10.5982 6.69398 10.4199 6.98835C10.2415 7.28271 10.1524 7.64612 10.1524 8.07857C10.1524 8.51512 10.2415 8.88307 10.4199 9.18244C10.5982 9.4818 10.8224 9.63148 11.0925 9.63148ZM11.0925 9.29736C10.922 9.29736 10.7784 9.17509 10.6617 8.93056C10.545 8.68602 10.4866 8.40203 10.4866 8.07857C10.4866 7.74101 10.5459 7.45701 10.6644 7.22658C10.783 6.99614 10.9256 6.88093 11.0925 6.88093C11.26 6.88093 11.403 6.99607 11.5215 7.22635C11.6401 7.45664 11.6994 7.74071 11.6994 8.07857C11.6994 8.40665 11.6411 8.6918 11.5247 8.93402C11.4082 9.17625 11.2642 9.29736 11.0925 9.29736ZM10.774 7.60692C10.8164 7.59722 10.8584 7.58428 10.8998 7.56809C10.9413 7.5519 11.0055 7.54381 11.0925 7.54381C11.1801 7.54381 11.2457 7.5519 11.2893 7.56809C11.3328 7.58428 11.3758 7.59722 11.4182 7.60692C11.4134 7.51546 11.3856 7.41524 11.3346 7.30625C11.2837 7.19726 11.203 7.14277 11.0925 7.14277C10.9869 7.14277 10.9098 7.19536 10.8613 7.30054C10.8127 7.40573 10.7837 7.50785 10.774 7.60692ZM8.49994 11.4015C8.40051 11.4015 8.27279 11.334 8.11678 11.1992C7.96076 11.0643 7.8212 10.9117 7.69807 10.7414C7.57495 10.5711 7.51338 10.4296 7.51338 10.3169C7.51338 10.1648 7.60895 10.0441 7.80008 9.95464C7.99121 9.8652 8.22449 9.82048 8.49994 9.82048C8.77538 9.82048 9.00867 9.8652 9.1998 9.95464C9.39093 10.0441 9.4865 10.1648 9.4865 10.3169C9.4865 10.4296 9.42496 10.5711 9.30186 10.7414C9.17877 10.9117 9.03916 11.0643 8.88304 11.1992C8.72692 11.334 8.59922 11.4015 8.49994 11.4015Z" fill="#1D1D20"/>
</svg>
