<svg width="14" height="15" viewBox="0 0 14 15" fill="none" xmlns="http://www.w3.org/2000/svg">
<g style="mix-blend-mode:plus-darker">
<path d="M7.00067 14.5C6.04226 14.5 5.14103 14.3164 4.297 13.9493C3.45297 13.5821 2.70939 13.077 2.06628 12.4339C1.42318 11.7908 0.91803 11.0472 0.550812 10.2032C0.183594 9.35919 0 8.45801 0 7.49966C0 6.54199 0.182563 5.64115 0.547729 4.79715C0.912897 3.95314 1.41803 3.20853 2.06311 2.56333C2.70819 1.91812 3.45275 1.41293 4.29678 1.04776C5.14081 0.682587 6.03983 0.5 6.99384 0.5C7.95164 0.5 8.85269 0.682587 9.69699 1.04776C10.5413 1.41293 11.2861 1.91812 11.9313 2.56333C12.5766 3.20853 13.0827 3.95314 13.4496 4.79715C13.8165 5.64115 14 6.54199 14 7.49966C14 8.45801 13.8176 9.35919 13.4527 10.2032C13.0878 11.0472 12.5827 11.7908 11.9372 12.4339C11.2917 13.077 10.547 13.5821 9.70309 13.9493C8.85914 14.3164 7.95832 14.5 7.00067 14.5ZM7.00067 13.4191C7.82412 13.4191 8.59304 13.2658 9.30746 12.9591C10.0219 12.6525 10.6502 12.228 11.1923 11.6854C11.7344 11.1429 12.1578 10.5144 12.4625 9.7999C12.7673 9.08539 12.9176 8.3186 12.9136 7.49954C12.9133 6.68034 12.7608 5.91262 12.456 5.1964C12.1512 4.48018 11.7277 3.85083 11.1855 3.30835C10.6433 2.76587 10.0151 2.34221 9.30063 2.03738C8.58621 1.73255 7.81728 1.58014 6.99384 1.58014C6.17464 1.58014 5.40784 1.73255 4.69345 2.03738C3.97907 2.34221 3.35174 2.76587 2.81143 3.30835C2.27112 3.85083 1.84873 4.4802 1.54428 5.19646C1.23984 5.91272 1.08762 6.68045 1.08762 7.49966C1.08762 8.31902 1.23984 9.08692 1.54428 9.80337C1.84873 10.5198 2.27114 11.1493 2.81152 11.6918C3.35191 12.2342 3.98036 12.6577 4.69687 12.9623C5.41338 13.2668 6.18132 13.4191 7.00067 13.4191ZM1.51074 4.81885C1.84469 4.1485 2.27388 3.56081 2.79831 3.05578C3.32274 2.55074 3.94736 2.14932 4.67215 1.85151C4.48227 1.98716 4.30238 2.17527 4.13245 2.41585C3.96251 2.65642 3.81671 2.88257 3.69504 3.09428C3.57337 3.306 3.48821 3.4338 3.43961 3.4777C3.39077 3.52168 3.24898 3.61301 3.01422 3.7517C2.77946 3.89038 2.52033 4.05442 2.23685 4.2438C1.95336 4.43319 1.71133 4.62487 1.51074 4.81885ZM11.4728 3.81322C11.3517 3.7596 11.1732 3.68765 10.9371 3.59738C10.701 3.50712 10.4493 3.41183 10.182 3.31154C9.91467 3.21125 9.67272 3.1172 9.45615 3.0294C9.23958 2.9416 9.09228 2.87575 9.01428 2.83185C8.90734 2.77352 8.76253 2.66322 8.57983 2.50095C8.39714 2.33868 8.21091 2.16878 8.02115 1.99124C7.83139 1.81371 7.67419 1.66934 7.54956 1.55815C7.54379 1.54843 7.55795 1.53259 7.59201 1.51064C7.62607 1.48869 7.66258 1.46557 7.70154 1.44126C8.45306 1.5324 9.16991 1.7557 9.85205 2.11115C10.5342 2.4666 11.1206 2.93203 11.6113 3.50744C11.6259 3.59509 11.6259 3.67647 11.6113 3.75158C11.5967 3.8267 11.5506 3.84724 11.4728 3.81322ZM11.5 10.9785C11.3541 10.998 11.2811 10.9396 11.2811 10.8034C11.2859 10.5697 11.2822 10.2924 11.27 9.97158C11.2578 9.65073 11.2494 9.34816 11.2448 9.06387C11.2403 8.77959 11.2547 8.57433 11.2882 8.4481C11.3181 8.32635 11.4022 8.1535 11.5406 7.92956C11.679 7.70562 11.8333 7.4636 12.0036 7.20351C12.1739 6.94341 12.3248 6.69902 12.4563 6.47033C12.5 6.39309 12.5619 6.35325 12.6419 6.35082C12.7219 6.34839 12.7909 6.36662 12.8491 6.40551C12.8749 6.42518 12.9013 6.4472 12.9285 6.47158C12.9556 6.49596 12.9871 6.52422 13.0231 6.55634C13.1385 7.40168 13.1149 8.18197 12.9521 8.8972C12.7894 9.61243 12.5057 10.2622 12.1011 10.8465C12.0042 10.8716 11.9065 10.8963 11.8079 10.9205C11.7093 10.9448 11.6067 10.9641 11.5 10.9785ZM8.51187 13.4114C7.91088 13.552 7.26602 13.6097 6.57727 13.5845C5.88852 13.5593 5.18897 13.3834 4.47861 13.0568C4.39597 12.9595 4.35464 12.8767 4.35464 12.8085C4.35464 12.7502 4.41297 12.704 4.52963 12.67C4.71032 12.6115 4.94153 12.5488 5.22327 12.4818C5.505 12.4149 5.76474 12.3577 6.0025 12.3104C6.24026 12.263 6.38164 12.2394 6.42661 12.2394C6.63023 12.2394 6.92651 12.2927 7.31549 12.3994C7.70447 12.5061 8.28575 12.6203 9.0593 12.7419C9.14717 12.7613 9.1911 12.8027 9.1911 12.8661C9.1911 12.8946 9.1812 12.9396 9.16138 13.0011C9.14155 13.0625 9.08366 13.1307 8.98773 13.2056C8.89181 13.2805 8.73319 13.3492 8.51187 13.4114ZM2.03696 11.048C1.61232 10.4306 1.30367 9.77174 1.11102 9.07139C0.918376 8.37105 0.864891 7.6268 0.950562 6.83866C0.949879 7.07167 1.01375 7.31333 1.14218 7.56363C1.27061 7.81393 1.40308 8.03777 1.53952 8.23517C1.67596 8.43257 1.75634 8.57232 1.78064 8.65442C1.80441 8.73235 1.82277 8.91125 1.83572 9.19113C1.84867 9.47101 1.86795 9.78355 1.89359 10.1287C1.91922 10.4739 1.96701 10.7804 2.03696 11.048ZM6.15454 9.81385C6.05231 9.81385 5.90007 9.76623 5.69781 9.67099C5.49556 9.57575 5.27174 9.45043 5.02631 9.29503C4.78087 9.13963 4.54376 8.97556 4.315 8.80281C4.08624 8.63006 3.89171 8.46456 3.73141 8.30632C3.57112 8.14807 3.47437 8.01783 3.4411 7.9156C3.40632 7.78512 3.41328 7.56796 3.46204 7.26411C3.5108 6.96027 3.58505 6.63315 3.68481 6.28275C3.78457 5.93235 3.89513 5.61495 4.01642 5.33055C4.13771 5.04615 4.2495 4.86252 4.35181 4.77966C4.43444 4.711 4.58644 4.64887 4.8078 4.59327C5.02916 4.53768 5.28221 4.49283 5.56699 4.45873C5.85176 4.42462 6.13858 4.4015 6.42746 4.38934C6.71633 4.37719 6.9727 4.38071 7.19656 4.39988C7.42043 4.41906 7.57617 4.4533 7.66382 4.50259C7.75146 4.55606 7.85002 4.68379 7.9595 4.88578C8.06898 5.08777 8.1783 5.32732 8.28745 5.60443C8.39659 5.88154 8.49269 6.16364 8.57574 6.45073C8.6588 6.73783 8.72085 6.99679 8.7619 7.2276C8.80295 7.45842 8.80921 7.62243 8.78073 7.71965C8.75141 7.8171 8.66016 7.95098 8.50693 8.1213C8.3537 8.29162 8.16638 8.47396 7.94495 8.66832C7.72351 8.86268 7.49493 9.04728 7.25922 9.22212C7.02351 9.39696 6.80593 9.53929 6.60645 9.64911C6.40696 9.75894 6.25631 9.81385 6.15454 9.81385ZM4.38153 5.17214C4.13773 4.87266 3.90433 4.57254 3.6813 4.27177C3.45828 3.97101 3.24297 3.66663 3.0354 3.35865L3.39188 3.04922C3.59573 3.36207 3.80989 3.67073 4.03436 3.97522C4.25883 4.27971 4.49559 4.58416 4.74463 4.88857L4.38153 5.17214ZM7.51709 5.0197L7.1622 4.73454C7.46365 4.3437 7.7714 3.95356 8.08542 3.56412C8.39943 3.17468 8.72752 2.78647 9.06967 2.3995L9.46429 2.64535C9.12806 3.03438 8.79739 3.42695 8.47229 3.82307C8.14719 4.2192 7.82879 4.61807 7.51709 5.0197ZM11.6205 8.76983C11.0875 8.59157 10.5491 8.42383 10.0053 8.26661C9.46144 8.10939 8.91467 7.96216 8.36502 7.82492L8.48615 7.37707C9.02979 7.51409 9.57226 7.66109 10.1136 7.81808C10.6549 7.97507 11.2044 8.14524 11.7621 8.32859L11.6205 8.76983ZM6.23257 12.6409C6.15305 12.1039 6.08605 11.5653 6.03156 11.0253C5.97706 10.4852 5.9303 9.94927 5.89127 9.41739H6.33807C6.37726 9.97677 6.42519 10.5254 6.48181 11.0632C6.53843 11.6011 6.60664 12.127 6.68646 12.6409H6.23257ZM1.55005 9.01215L1.4277 8.58105C1.67933 8.44753 1.9307 8.31892 2.18182 8.19524C2.43295 8.07155 2.68575 7.95153 2.94022 7.83517C3.19469 7.71882 3.45248 7.60527 3.71359 7.49453L3.85611 7.92039C3.4696 8.08414 3.08385 8.25737 2.69882 8.44007C2.31379 8.62277 1.93086 8.81346 1.55005 9.01215Z" fill="#1D1D20"/>
</g>
</svg>
