<svg width="19" height="15" viewBox="0 0 19 15" fill="none" xmlns="http://www.w3.org/2000/svg">
<g style="mix-blend-mode:plus-darker">
<path d="M1.25116 13.5448C0.882047 13.5448 0.58122 13.4246 0.348724 13.1843C0.116227 12.944 0 12.6307 0 12.2442V11.3443C0 11.0794 0.0537469 10.8528 0.161255 10.6645C0.268763 10.4763 0.40707 10.3298 0.576172 10.2252V9.79727C0.576172 9.20641 0.731528 8.68332 1.04224 8.228C1.35294 7.77267 1.79976 7.37137 2.38269 7.02408C2.96562 6.6768 3.66638 6.36774 4.48495 6.09691L4.84009 5.98781C5.08121 5.52918 5.34153 5.09315 5.62103 4.67971C5.90053 4.26628 6.17217 3.89098 6.43591 3.55381C6.69966 3.21664 6.93143 2.93468 7.13126 2.70792C7.33108 2.48116 7.47421 2.32927 7.56064 2.25225C7.93395 1.90298 8.31206 1.62782 8.69498 1.42678C9.0779 1.22574 9.50679 1.08137 9.98169 0.993679C10.4566 0.905983 11.0244 0.862136 11.685 0.862136H12.8076C13.5806 0.862136 14.2256 0.990313 14.7425 1.24667C15.2594 1.50302 15.7063 1.88947 16.0832 2.40602C16.3042 2.71845 16.5788 3.14465 16.9069 3.68462C17.235 4.2246 17.581 4.85751 17.9449 5.58337C18.1558 6.0053 18.3208 6.41193 18.4398 6.80325C18.5588 7.19457 18.6183 7.62007 18.6183 8.07976V10.3767C18.7341 10.4462 18.8267 10.537 18.896 10.649C18.9653 10.7611 19 10.897 19 11.0566V12.2442C19 12.7037 18.8796 13.0353 18.6389 13.2391C18.3982 13.4429 18.0549 13.5448 17.6089 13.5448H16.2419V12.6456H17.656C17.9541 12.6456 18.1032 12.4975 18.1032 12.2013V11.2671C18.1032 11.1584 18.0745 11.0607 18.0171 10.9742C17.9596 10.8876 17.8611 10.8197 17.7215 10.7704V8.07976C17.7215 7.70092 17.6732 7.35497 17.5768 7.04191C17.4803 6.72885 17.3331 6.37902 17.1352 5.99244C16.7762 5.26794 16.4426 4.64888 16.1342 4.13526C15.8259 3.62165 15.566 3.22183 15.3544 2.9358C15.0696 2.53373 14.7287 2.23742 14.3317 2.04687C13.9347 1.85633 13.4267 1.76105 12.8076 1.76105H11.685C11.1202 1.76105 10.6341 1.79589 10.2268 1.86558C9.81951 1.93526 9.45889 2.04839 9.14499 2.20498C8.83109 2.36157 8.52916 2.57329 8.2392 2.84014C8.13619 2.93859 7.97842 3.10877 7.76584 3.35069C7.55326 3.5926 7.31281 3.88767 7.04449 4.2359C6.77617 4.58412 6.50452 4.97149 6.22952 5.39801C5.95453 5.82453 5.70107 6.27125 5.46918 6.73815L5.06934 6.85988C4.232 7.12161 3.54783 7.39232 3.01682 7.67199C2.4858 7.95166 2.09578 8.26288 1.84674 8.60565C1.5977 8.94842 1.47318 9.34563 1.47318 9.79727V10.7517C1.27121 10.8389 1.12468 10.9367 1.03357 11.045C0.942453 11.1532 0.896881 11.3065 0.896881 11.5047V12.2013C0.896881 12.4975 1.04593 12.6456 1.34399 12.6456H2.71307V13.5448H1.25116ZM7.10541 6.61123C6.89527 6.61123 6.75672 6.5336 6.68973 6.37833C6.62273 6.22305 6.63545 6.06032 6.72787 5.89012C7.07035 5.27602 7.41796 4.75101 7.77072 4.31509C8.12348 3.87917 8.41292 3.55708 8.63904 3.34882C8.90792 3.09363 9.17773 2.8972 9.44846 2.75953C9.71918 2.62186 10.0224 2.52625 10.3582 2.4727C10.694 2.41915 11.0937 2.39237 11.5573 2.39237H12.6398C13.091 2.39237 13.4332 2.46111 13.6664 2.5986C13.8995 2.73608 14.0907 2.98567 14.24 3.34736C14.3564 3.62285 14.4592 3.92255 14.5482 4.24644C14.6373 4.57034 14.707 4.87118 14.7573 5.14897C14.8077 5.42676 14.8328 5.63808 14.8328 5.78294C14.8328 6.05844 14.7665 6.26536 14.634 6.40371C14.5014 6.54206 14.3029 6.61123 14.0383 6.61123H7.10541ZM2.98227 7.71435C3.14177 7.71435 3.22153 7.80569 3.22153 7.98838C3.22153 8.13316 3.172 8.28775 3.07297 8.45216C2.97394 8.61658 2.84755 8.77341 2.69379 8.92266C2.54003 9.07192 2.38134 9.19361 2.21771 9.28774C2.05409 9.38186 1.90973 9.42892 1.78467 9.42892C1.62157 9.42892 1.54004 9.33487 1.54004 9.14677C1.54004 9.01636 1.59056 8.86928 1.69165 8.70555C1.79274 8.54182 1.92018 8.38513 2.07394 8.2355C2.2277 8.08587 2.38624 7.9616 2.54956 7.8627C2.71289 7.7638 2.85713 7.71435 2.98227 7.71435ZM17.517 8.57908C17.4015 8.57908 17.304 8.50547 17.2245 8.35824C17.145 8.21102 17.1053 8.03396 17.1053 7.82705C17.1053 7.62902 17.145 7.45765 17.2245 7.31295C17.304 7.16824 17.4015 7.09589 17.517 7.09589C17.6278 7.09589 17.7205 7.16824 17.7951 7.31295C17.8697 7.45765 17.907 7.62902 17.907 7.82705C17.907 8.03396 17.8697 8.21102 17.7951 8.35824C17.7205 8.50547 17.6278 8.57908 17.517 8.57908ZM4.35745 14.5C3.94685 14.5 3.57288 14.3995 3.23553 14.1984C2.89819 13.9973 2.62927 13.7266 2.42877 13.3864C2.22827 13.0461 2.12802 12.6702 2.12802 12.2586C2.12802 11.8468 2.22827 11.4717 2.42877 11.1333C2.62927 10.7949 2.89819 10.5252 3.23553 10.3242C3.57288 10.1233 3.94685 10.0228 4.35745 10.0228C4.77233 10.0228 5.14839 10.1233 5.48566 10.3242C5.82292 10.5252 6.09185 10.7949 6.29242 11.1333C6.49299 11.4717 6.59329 11.8468 6.59329 12.2586C6.59329 12.6702 6.49299 13.0461 6.29242 13.3864C6.09185 13.7266 5.82292 13.9973 5.48566 14.1984C5.14839 14.3995 4.77233 14.5 4.35745 14.5ZM4.35745 13.4737C4.69326 13.4737 4.97827 13.3564 5.21252 13.1217C5.44678 12.887 5.56393 12.5993 5.56393 12.2586C5.56393 11.9213 5.44678 11.6354 5.21252 11.4009C4.97827 11.1663 4.69326 11.0491 4.35745 11.0491C4.0218 11.0491 3.73571 11.1663 3.49924 11.4009C3.26276 11.6354 3.14453 11.9213 3.14453 12.2586C3.14453 12.5993 3.26276 12.887 3.49924 13.1217C3.73571 13.3564 4.0218 13.4737 4.35745 13.4737ZM14.7083 14.5C14.2976 14.5 13.9224 14.3995 13.5827 14.1984C13.2431 13.9973 12.9729 13.7266 12.7724 13.3864C12.5718 13.0461 12.4715 12.6702 12.4715 12.2586C12.4715 11.8468 12.5718 11.4717 12.7724 11.1333C12.9729 10.7949 13.2431 10.5252 13.5827 10.3242C13.9224 10.1233 14.2976 10.0228 14.7083 10.0228C15.1231 10.0228 15.4981 10.1233 15.8333 10.3242C16.1686 10.5252 16.4364 10.7949 16.6368 11.1333C16.8372 11.4717 16.9375 11.8468 16.9375 12.2586C16.9375 12.6702 16.8372 13.0461 16.6368 13.3864C16.4364 13.7266 16.1686 13.9973 15.8333 14.1984C15.4981 14.3995 15.1231 14.5 14.7083 14.5ZM14.7083 13.4737C15.0439 13.4737 15.3289 13.3564 15.5633 13.1217C15.7977 12.887 15.9149 12.5993 15.9149 12.2586C15.9149 11.9213 15.7977 11.6354 15.5633 11.4009C15.3289 11.1663 15.0439 11.0491 14.7083 11.0491C14.3718 11.0491 14.0845 11.1663 13.8463 11.4009C13.6081 11.6354 13.489 11.9213 13.489 12.2586C13.489 12.5993 13.6081 12.887 13.8463 13.1217C14.0845 13.3564 14.3718 13.4737 14.7083 13.4737ZM5.94958 13.5448V12.6456H13.0317V13.5448H5.94958ZM15.2123 1.96638L14.7397 1.67452L15.36 0.634022C15.4063 0.559939 15.4675 0.516787 15.5434 0.504566C15.6194 0.492344 15.6877 0.50466 15.7482 0.541513C15.8136 0.574756 15.8589 0.626614 15.884 0.697086C15.9091 0.767558 15.8964 0.843972 15.8461 0.926328L15.2123 1.96638ZM7.33365 11.3142C7.27288 11.3142 7.22015 11.2918 7.17548 11.2469C7.1308 11.202 7.10846 11.1491 7.10846 11.0882C7.10846 11.0266 7.1308 10.9745 7.17548 10.9319C7.22015 10.8892 7.27288 10.8679 7.33365 10.8679H11.7503C11.8116 10.8679 11.8646 10.8892 11.9092 10.9319C11.9539 10.9745 11.9763 11.0266 11.9763 11.0882C11.9763 11.1491 11.954 11.202 11.9094 11.2469C11.8648 11.2918 11.8117 11.3142 11.7503 11.3142H7.33365Z" fill="#1D1D20"/>
</g>
</svg>
