<svg width="1024" height="1024" viewBox="0 0 1024 1024" fill="none" xmlns="http://www.w3.org/2000/svg">
<mask id="mask0_1676_14811" style="mask-type:alpha" maskUnits="userSpaceOnUse" x="0" y="0" width="1024" height="1024">
<rect width="1024" height="1024" fill="#D9D9D9"/>
</mask>
<g mask="url(#mask0_1676_14811)">
<path d="M1000.84 -515.623C1015.63 -538.944 1046.52 -545.862 1069.84 -531.076C1093.16 -516.289 1100.08 -485.395 1085.29 -462.074L861.291 -108.784C852.602 -95.0803 837.803 -86.4453 821.598 -85.6227C805.393 -84.8001 789.796 -91.8927 779.764 -104.646L693.766 -213.975L507.604 79.6371C498.915 93.3408 484.116 101.977 467.911 102.799C451.706 103.622 436.11 96.529 426.078 83.7758L340.08 -25.5533L153.917 268.058C145.228 281.762 130.429 290.397 114.223 291.22C98.0182 292.043 82.422 284.95 72.3903 272.197L-57.2953 107.328C-74.3676 85.6232 -70.6128 54.1891 -48.9085 37.1166C-27.2043 20.0442 4.22993 23.7991 21.3024 45.5033L107.299 154.831L293.464 -138.78C302.152 -152.483 316.951 -161.118 333.156 -161.941C349.361 -162.764 364.958 -155.671 374.99 -142.918L460.987 -33.5894L647.151 -327.201L647.563 -327.839C656.303 -341.173 670.891 -349.553 686.843 -350.363C703.049 -351.186 718.646 -344.093 728.677 -331.339L814.674 -222.011L1000.84 -515.623Z" fill="white" fill-opacity="0.07"/>
</g>
</svg>
