<svg width="1024" height="1024" viewBox="0 0 1024 1024" fill="none" xmlns="http://www.w3.org/2000/svg">
<mask id="mask0_1676_14820" style="mask-type:alpha" maskUnits="userSpaceOnUse" x="0" y="0" width="1024" height="1024">
<rect width="1024" height="1024" fill="#D9D9D9"/>
</mask>
<g mask="url(#mask0_1676_14820)">
<path d="M1009.78 121.617C1024.58 98.3019 1055.48 91.3968 1078.79 106.194C1102.11 120.991 1109.01 151.888 1094.22 175.202L861.279 542.22C852.588 555.913 837.796 564.54 821.599 565.363C805.402 566.185 789.812 559.1 779.779 546.358L693.765 437.113L507.592 730.461C498.902 744.155 484.109 752.782 467.912 753.605C451.714 754.427 436.124 747.343 426.091 734.6L340.078 625.355L153.905 918.704C145.214 932.398 130.422 941.026 114.224 941.848C98.027 942.67 82.4367 935.586 72.4039 922.843L-57.2816 758.13C-74.3638 736.434 -70.6232 704.998 -48.9271 687.915C-27.2307 670.833 4.20617 674.573 21.2887 696.269L107.301 805.514L293.475 512.165L293.887 511.527C302.629 498.204 317.211 489.832 333.155 489.022C349.352 488.199 364.942 495.284 374.975 508.027L460.989 617.272L647.163 323.923L647.574 323.285C656.315 309.962 670.898 301.589 686.842 300.78C703.04 299.957 718.63 307.042 728.663 319.785L814.676 429.03L1009.78 121.617Z" fill="white" fill-opacity="0.07"/>
</g>
</svg>
